# 3ds Max Wavefront OBJ Exporter v0.97b - (c)2007 guruware
# File Created: 09.09.2015 18:35:29

mtllib 3d-model.mtl

#
# object Group_007
#

v  576.8312 117.4788 303.7056
v  576.8312 30.7087 303.7056
v  576.8312 30.7087 186.4196
v  576.8312 133.6701 303.7056
v  576.8312 133.6701 186.4196
v  462.2571 30.7087 303.7056
v  462.2571 133.6701 303.7056
v  462.2571 133.6701 186.4196
v  462.2571 30.7087 186.4196
v  468.7217 37.0967 186.4196
v  468.7217 127.2820 186.4196
v  570.3666 127.2820 186.4196
v  570.3666 37.0967 186.4196
# 13 vertices

vn 1.0000 0.0000 -0.0000
vn -1.0000 0.0000 -0.0000
vn 0.0000 1.0000 -0.0000
vn 0.0000 0.0000 1.0000
vn 0.0000 0.0000 -1.0000
# 5 vertex normals

vt -61.0462 0.8460 0.0000
vt -61.0462 0.0000 0.0000
vt -60.0195 0.0000 0.0000
vt -61.0462 1.0038 0.0000
vt -60.0195 1.0038 0.0000
vt 58.0462 0.0000 0.0000
vt 58.0462 1.0038 0.0000
vt 57.0195 1.0038 0.0000
vt 57.0195 0.0000 0.0000
vt -21.0512 -58.0170 0.0000
vt -21.0512 -59.0437 0.0000
vt -19.9473 -59.0437 0.0000
vt -19.9473 -58.0170 0.0000
vt -61.0503 -1.0507 0.0000
vt -61.0503 0.0531 0.0000
vt -61.8962 0.0531 0.0000
vt -62.0541 -1.0507 0.0000
vt -62.0541 0.0531 0.0000
vt -20.9889 -57.0754 0.0000
vt -19.9473 -57.0131 0.0000
vt -21.0512 -57.0131 0.0000
vt -20.9889 -57.9547 0.0000
vt -20.0096 -57.9547 0.0000
vt -20.0096 -57.0754 0.0000
vt 0.0000 0.0000 0.0000
vt 81.0000 0.0000 0.0000
vt 82.0000 0.0000 0.0000
vt 82.0000 1.0000 0.0000
vt 81.0000 1.0000 0.0000
# 29 texture coords

g Group_007
usemtl wire_087224198
s off
f 1/1/1 2/2/1 3/3/1 4/4/1 
f 4/4/1 3/3/1 5/5/1 
f 6/6/2 7/7/2 8/8/2 9/9/2 
f 8/10/3 7/11/3 4/12/3 5/13/3 
f 6/14/4 2/15/4 1/16/4 7/17/4 
f 7/17/4 1/16/4 4/18/4 
f 10/19/5 3/20/5 9/21/5 8/10/5 
f 11/22/5 10/19/5 8/10/5 12/23/5 
f 12/23/5 8/10/5 5/13/5 13/24/5 
f 13/24/5 5/13/5 3/20/5 10/19/5 
f 9/25/3 6/25/3 2/25/3 3/25/3 
f 13/26/5 10/27/5 11/28/5 12/29/5 
# 10 polygons - 2 triangles

#
# object Group_006
#

v  -87.8873 30.7087 345.8529
v  -87.8873 30.7087 -277.7692
v  25.1048 30.7087 -277.7692
v  25.1048 30.7087 345.8529
v  -87.8873 133.4646 -277.7692
v  -87.8873 133.4646 345.8529
v  25.1048 133.4646 345.8529
v  25.1048 133.4646 -277.7692
# 8 vertices

vn -0.0000 -1.0000 -0.0000
vn 0.0000 1.0000 0.0000
vn 0.0000 0.0000 -1.0000
vn -1.0000 0.0000 -0.0000
vn 0.0000 0.0000 1.0000
vn 1.0000 0.0000 -0.0000
# 6 vertex normals

vt -61.0503 -1.0507 0.0000
vt -54.9580 -1.0507 0.0000
vt -54.9580 0.0531 0.0000
vt -61.0503 0.0531 0.0000
vt -21.0512 -52.9514 0.0000
vt -21.0512 -59.0437 0.0000
vt -19.9473 -59.0437 0.0000
vt -19.9473 -52.9514 0.0000
vt -53.9003 0.0531 0.0000
vt -54.9041 0.0531 0.0000
vt -54.9041 -1.0507 0.0000
vt -53.9003 -1.0507 0.0000
vt 58.0462 0.0000 0.0000
vt 58.0462 1.0038 0.0000
vt 51.9538 1.0038 0.0000
vt 51.9538 0.0000 0.0000
vt -61.0041 -1.0507 0.0000
vt -61.0041 0.0531 0.0000
vt -62.0080 0.0531 0.0000
vt -62.0080 -1.0507 0.0000
vt -61.0462 1.0038 0.0000
vt -61.0462 0.0000 0.0000
vt -54.9538 0.0000 0.0000
vt -54.9538 1.0038 0.0000
# 24 texture coords

g Group_006
usemtl wire_087224198
s off
f 14/30/6 15/31/6 16/32/6 17/33/6 
f 18/34/7 19/35/7 20/36/7 21/37/7 
f 21/38/8 16/39/8 15/40/8 18/41/8 
f 14/42/9 19/43/9 18/44/9 15/45/9 
f 14/46/10 17/47/10 20/48/10 19/49/10 
f 20/50/11 17/51/11 16/52/11 21/53/11 
# 6 polygons

#
# object Group_005
#

v  -253.2416 0.0000 345.8529
v  -253.2416 0.0000 -345.8529
v  -184.3164 0.0000 -345.8529
v  -184.3164 0.0000 345.8529
v  -253.2416 62.6811 -345.8529
v  -253.2416 62.6811 345.8529
v  -184.3164 62.6811 345.8529
v  -184.3164 62.6811 -345.8529
# 8 vertices

vn -0.0000 -1.0000 -0.0000
vn 0.0000 1.0000 -0.0000
vn 0.0000 0.0000 -1.0000
vn -1.0000 0.0000 0.0000
vn 0.0000 0.0000 1.0000
vn 1.0000 -0.0000 -0.0000
# 6 vertex normals

vt -66.0357 -1.0507 0.0000
vt -54.9580 -1.0507 0.0000
vt -54.9580 0.0531 0.0000
vt -66.0357 0.0531 0.0000
vt -21.0512 -52.9514 0.0000
vt -21.0512 -64.0291 0.0000
vt -19.9473 -64.0291 0.0000
vt -19.9473 -52.9514 0.0000
vt -54.9041 0.0531 0.0000
vt -54.9041 -1.0507 0.0000
vt -53.9003 -1.0507 0.0000
vt -53.9003 0.0531 0.0000
vt 63.0316 0.0000 0.0000
vt 63.0316 1.0038 0.0000
vt 51.9538 1.0038 0.0000
vt 51.9538 0.0000 0.0000
vt -61.0041 -1.0507 0.0000
vt -61.0041 0.0531 0.0000
vt -62.0080 0.0531 0.0000
vt -62.0080 -1.0507 0.0000
vt -66.0316 1.0038 0.0000
vt -66.0316 0.0000 0.0000
vt -54.9538 0.0000 0.0000
vt -54.9538 1.0038 0.0000
# 24 texture coords

g Group_005
usemtl wire_224086086
s off
f 22/54/12 23/55/12 24/56/12 25/57/12 
f 26/58/13 27/59/13 28/60/13 29/61/13 
f 24/62/14 23/63/14 26/64/14 29/65/14 
f 22/66/15 27/67/15 26/68/15 23/69/15 
f 22/70/16 25/71/16 28/72/16 27/73/16 
f 28/74/17 25/75/17 24/76/17 29/77/17 
# 6 polygons

#
# object Group_004
#

v  304.7654 82.0866 172.8103
v  304.7654 82.0866 217.2783
v  361.2615 82.0866 217.2783
v  361.2615 82.0866 172.8103
v  304.7654 74.0071 225.3578
v  361.2615 74.0071 225.3578
v  304.7654 30.7087 225.3578
v  361.2615 30.7087 225.3578
v  307.9531 33.8963 172.8103
v  361.2615 30.7087 172.8103
v  304.7654 30.7087 172.8103
v  307.9531 78.8990 172.8103
v  358.0739 78.8990 172.8103
v  358.0739 33.8963 172.8103
# 14 vertices

vn 0.0000 1.0000 -0.0000
vn 0.0000 0.7071 0.7071
vn 0.0000 -0.0000 1.0000
vn 0.0000 0.0000 -1.0000
vn 1.0000 -0.0000 -0.0000
vn -1.0000 0.0000 -0.0000
# 6 vertex normals

vt -21.0512 -58.0170 0.0000
vt -21.0512 -58.8858 0.0000
vt -19.9473 -58.8858 0.0000
vt -19.9473 -58.0170 0.0000
vt -21.0512 -59.1091 0.0000
vt -19.9473 -59.1091 0.0000
vt -61.0503 -1.0507 0.0000
vt -61.0503 0.0531 0.0000
vt -61.8962 0.0531 0.0000
vt -61.8962 -1.0507 0.0000
vt -20.9889 -57.0754 0.0000
vt -19.9473 -57.0131 0.0000
vt -21.0512 -57.0131 0.0000
vt -20.9889 -57.9547 0.0000
vt -20.0096 -57.9547 0.0000
vt -20.0096 -57.0754 0.0000
vt -61.0462 0.8460 0.0000
vt -61.0462 0.0000 0.0000
vt -60.0195 0.0000 0.0000
vt -60.8883 1.0038 0.0000
vt -60.0195 1.0038 0.0000
vt 58.0462 0.0000 0.0000
vt 58.0462 0.8460 0.0000
vt 57.8883 1.0038 0.0000
vt 57.0195 0.0000 0.0000
vt 57.0195 1.0038 0.0000
vt 0.0000 0.0000 0.0000
vt 81.0000 0.0000 0.0000
vt 82.0000 0.0000 0.0000
vt 82.0000 1.0000 0.0000
vt 81.0000 1.0000 0.0000
# 31 texture coords

g Group_004
usemtl wire_224086086
s off
f 30/78/18 31/79/18 32/80/18 33/81/18 
f 31/79/19 34/82/19 35/83/19 32/80/19 
f 36/84/20 37/85/20 35/86/20 34/87/20 
f 38/88/21 39/89/21 40/90/21 30/78/21 
f 41/91/21 38/88/21 30/78/21 42/92/21 
f 42/92/21 30/78/21 33/81/21 43/93/21 
f 43/93/21 33/81/21 39/89/21 38/88/21 
f 35/94/22 37/95/22 39/96/22 32/97/22 
f 32/97/22 39/96/22 33/98/22 
f 36/99/23 34/100/23 31/101/23 40/102/23 
f 40/102/23 31/101/23 30/103/23 
f 40/104/18 36/104/18 37/104/18 39/104/18 
f 43/105/21 38/106/21 41/107/21 42/108/21 
# 11 polygons - 2 triangles

#
# object Group_003
#

v  130.6442 133.6701 155.4629
v  130.6442 133.6701 254.7155
v  245.2182 133.6701 254.7155
v  245.2182 133.6701 155.4629
v  130.6442 117.4788 272.7489
v  245.2182 117.4788 272.7489
v  130.6442 30.7087 272.7489
v  245.2182 30.7087 272.7489
v  137.1087 37.0967 155.4629
v  245.2182 30.7087 155.4629
v  130.6442 30.7087 155.4629
v  137.1087 127.2820 155.4629
v  238.7536 127.2820 155.4629
v  238.7536 37.0967 155.4629
# 14 vertices

vn 0.0000 1.0000 -0.0000
vn 0.0000 0.7071 0.7071
vn 0.0000 -0.0000 1.0000
vn 0.0000 0.0000 -1.0000
vn 1.0000 -0.0000 -0.0000
vn -1.0000 0.0000 -0.0000
# 6 vertex normals

vt -21.0512 -58.0170 0.0000
vt -21.0512 -58.8858 0.0000
vt -19.9473 -58.8858 0.0000
vt -19.9473 -58.0170 0.0000
vt -21.0512 -59.1091 0.0000
vt -19.9473 -59.1091 0.0000
vt -61.0503 -1.0507 0.0000
vt -61.0503 0.0531 0.0000
vt -61.8962 0.0531 0.0000
vt -61.8962 -1.0507 0.0000
vt -20.9889 -57.0754 0.0000
vt -19.9473 -57.0131 0.0000
vt -21.0512 -57.0131 0.0000
vt -20.9889 -57.9547 0.0000
vt -20.0096 -57.9547 0.0000
vt -20.0096 -57.0754 0.0000
vt -61.0462 0.8460 0.0000
vt -61.0462 0.0000 0.0000
vt -60.0195 0.0000 0.0000
vt -60.8883 1.0038 0.0000
vt -60.0195 1.0038 0.0000
vt 58.0462 0.0000 0.0000
vt 58.0462 0.8460 0.0000
vt 57.8883 1.0038 0.0000
vt 57.0195 0.0000 0.0000
vt 57.0195 1.0038 0.0000
vt 0.0000 0.0000 0.0000
vt 81.0000 0.0000 0.0000
vt 82.0000 0.0000 0.0000
vt 82.0000 1.0000 0.0000
vt 81.0000 1.0000 0.0000
# 31 texture coords

g Group_003
usemtl wire_134110008
s off
f 44/109/24 45/110/24 46/111/24 47/112/24 
f 45/110/25 48/113/25 49/114/25 46/111/25 
f 50/115/26 51/116/26 49/117/26 48/118/26 
f 52/119/27 53/120/27 54/121/27 44/109/27 
f 55/122/27 52/119/27 44/109/27 56/123/27 
f 56/123/27 44/109/27 47/112/27 57/124/27 
f 57/124/27 47/112/27 53/120/27 52/119/27 
f 49/125/28 51/126/28 53/127/28 46/128/28 
f 46/128/28 53/127/28 47/129/28 
f 50/130/29 48/131/29 45/132/29 54/133/29 
f 54/133/29 45/132/29 44/134/29 
f 54/135/24 50/135/24 51/135/24 53/135/24 
f 57/136/27 52/137/27 55/138/27 56/139/27 
# 11 polygons - 2 triangles

#
# object Group_002
#

v  238.6675 74.0071 32.5943
v  238.6675 30.7087 32.5943
v  238.6675 30.7087 -19.9532
v  238.6675 82.0866 24.5149
v  238.6675 82.0866 -19.9532
v  238.6675 82.0866 -72.5006
v  238.6675 30.7087 -72.5006
v  238.6675 30.7087 -124.8860
v  238.6675 82.0866 -116.8065
v  238.6675 74.0071 -124.8860
v  182.1714 74.0071 -124.8860
v  182.1714 82.0866 -116.8065
v  182.1714 30.7087 32.5943
v  182.1714 74.0071 32.5943
v  182.1714 82.0866 24.5149
v  182.1714 30.7087 -124.8860
v  262.2896 33.9619 -23.2064
v  262.2896 82.0866 -19.9532
v  262.2896 30.7087 -19.9532
v  262.2896 30.7087 -72.5006
v  262.2896 33.9619 -69.2474
v  262.2896 78.8334 -69.2474
v  262.2896 82.0866 -72.5006
v  262.2896 78.8334 -23.2064
# 24 vertices

vn 1.0000 0.0000 -0.0000
vn 0.0000 0.7071 -0.7071
vn -1.0000 0.0000 -0.0000
vn 0.0000 1.0000 0.0000
vn 0.0000 0.7071 0.7071
vn 0.0000 0.0000 1.0000
vn 0.0000 0.0000 -1.0000
vn -0.0000 -1.0000 -0.0000
# 8 vertex normals

vt -61.0462 0.8460 0.0000
vt -61.0462 0.0000 0.0000
vt -60.0195 0.0000 0.0000
vt -60.8883 1.0038 0.0000
vt -60.0195 1.0038 0.0000
vt -58.9928 1.0038 0.0000
vt -58.9928 0.0000 0.0000
vt -57.9692 0.0000 0.0000
vt -58.1271 1.0038 0.0000
vt -57.9692 0.8460 0.0000
vt -54.0581 0.0531 0.0000
vt -54.0581 -1.0507 0.0000
vt -53.8349 -1.0507 0.0000
vt -53.8349 0.0531 0.0000
vt 58.0462 0.0000 0.0000
vt 58.0462 0.8460 0.0000
vt 57.8883 1.0038 0.0000
vt 54.9692 0.0000 0.0000
vt 55.1271 1.0038 0.0000
vt 54.9692 0.8460 0.0000
vt -59.9559 0.0636 0.0000
vt -59.0563 0.0636 0.0000
vt -59.0563 0.9403 0.0000
vt -59.9559 0.9403 0.0000
vt -19.9473 -56.9903 0.0000
vt -19.9473 -58.0170 0.0000
vt -19.4858 -58.0170 0.0000
vt -19.4858 -56.9903 0.0000
vt -19.9473 -56.1246 0.0000
vt -19.9473 -58.8858 0.0000
vt -21.0512 -56.1246 0.0000
vt -21.0512 -58.8858 0.0000
vt -21.0512 -59.1091 0.0000
vt -19.9473 -59.1091 0.0000
vt -61.0503 -1.0507 0.0000
vt -61.0503 0.0531 0.0000
vt -61.8962 0.0531 0.0000
vt -61.8962 -1.0507 0.0000
vt -54.9041 0.0531 0.0000
vt -54.9041 -1.0507 0.0000
vt -60.0236 0.0531 0.0000
vt -58.9969 0.0531 0.0000
vt -58.9969 0.5146 0.0000
vt -60.0236 0.5146 0.0000
vt -57.9733 0.0531 0.0000
vt -57.9733 -1.0507 0.0000
vt 20.5884 0.0000 0.0000
vt 21.0499 0.0000 0.0000
vt 21.0499 1.0038 0.0000
vt 20.5884 1.0038 0.0000
vt 91.8457 0.0000 0.0000
vt 92.3072 0.0000 0.0000
vt 92.3072 1.0038 0.0000
vt 91.8457 1.0038 0.0000
vt -59.0000 1.0000 0.0000
vt -59.0000 0.0000 0.0000
vt -58.0000 0.0000 0.0000
vt -58.0000 1.0000 0.0000
# 58 texture coords

g Group_002
usemtl wire_006134006
s off
f 58/140/30 59/141/30 60/142/30 61/143/30 
f 61/143/30 60/142/30 62/144/30 
f 63/145/30 64/146/30 65/147/30 66/148/30 
f 66/148/30 65/147/30 67/149/30 
f 67/150/31 68/151/31 69/152/31 66/153/31 
f 70/154/32 71/155/32 72/156/32 73/157/32 
f 73/157/32 72/156/32 69/158/32 68/159/32 
f 74/160/30 75/144/30 76/142/30 77/146/30 
f 78/161/30 74/160/30 77/146/30 79/162/30 
f 79/162/30 77/146/30 80/145/30 81/163/30 
f 81/163/30 80/145/30 75/144/30 74/160/30 
f 63/164/33 62/165/33 75/166/33 80/167/33 
f 62/165/33 63/164/33 66/168/33 61/169/33 
f 61/169/33 66/168/33 69/170/33 72/171/33 
f 72/171/34 71/172/34 58/173/34 61/169/34 
f 70/174/35 59/175/35 58/176/35 71/177/35 
f 67/150/36 65/178/36 73/179/36 68/151/36 
f 60/180/37 64/181/37 77/182/37 76/183/37 
f 64/181/37 60/180/37 59/175/37 65/184/37 
f 65/184/37 59/175/37 70/174/37 73/185/37 
f 60/186/35 76/187/35 75/188/35 62/189/35 
f 77/190/36 64/191/36 63/192/36 80/193/36 
f 81/194/30 74/195/30 78/196/30 79/197/30 
# 21 polygons - 2 triangles

#
# object Group_001
#

v  -421.3079 273.9497 95.6082
v  -421.3079 273.9497 87.3405
v  -412.2527 273.9497 87.3405
v  -419.7331 273.9497 95.6082
v  -419.7331 273.9497 247.9598
v  -412.2527 273.9497 256.2275
v  -421.3079 273.9497 256.2275
v  -421.3079 273.9497 247.9598
v  -567.3824 225.3904 247.9598
v  -567.3824 225.3904 256.2275
v  -421.3079 225.3904 256.2275
v  -421.3079 225.3904 247.9598
v  -576.8312 176.8309 256.2275
v  -412.2527 176.8309 256.2275
v  -412.2527 225.3904 256.2275
v  -576.8312 225.3904 256.2275
v  -412.2527 30.7087 256.2275
v  -412.2527 30.7087 87.3405
v  -412.2527 176.8309 87.3405
v  -522.5203 329.9805 146.4509
v  -522.5203 329.9805 201.3392
v  -468.2094 329.9805 201.3392
v  -468.2094 329.9805 146.4509
v  -412.2527 225.3904 87.3405
v  -576.8312 311.8703 256.2275
v  -412.2527 311.8703 256.2275
v  -576.8312 311.8703 87.3405
v  -412.2527 311.8703 87.3405
v  -576.8312 176.8309 87.3405
v  -576.8312 225.3904 87.3405
v  -567.3824 225.3904 87.3405
v  -421.3079 225.3904 87.3405
v  -567.3824 273.9497 256.2275
v  -567.3824 273.9497 247.9598
v  -567.3824 225.3904 95.6082
v  -567.3824 273.9497 95.6082
v  -567.3824 273.9497 87.3405
v  -421.3079 225.3904 95.6082
v  -576.8312 273.9497 256.2275
v  -576.8312 273.9497 87.3405
v  -419.7331 225.3904 247.9598
v  -419.7331 225.3904 95.6082
v  -576.8312 30.7087 87.3405
v  -576.8312 30.7087 256.2275
# 44 vertices

vn 0.0000 -1.0000 -0.0000
vn 0.0000 1.0000 -0.0000
vn 0.0000 0.0000 1.0000
vn 1.0000 0.0000 -0.0000
vn -0.1231 0.9863 -0.1101
vn -0.1214 0.9853 0.1198
vn 0.1174 0.9858 0.1204
vn 0.1190 0.9867 -0.1107
vn 0.0000 0.9496 0.3133
vn -0.3163 0.9486 0.0000
vn 0.0000 0.9561 -0.2929
vn 0.0000 0.0000 -1.0000
vn -1.0000 0.0000 -0.0000
vn 0.3079 0.9514 -0.0000
# 14 vertex normals

vt 24.2842 1.6261 0.0000
vt 24.3254 1.6261 0.0000
vt 24.3254 1.6890 0.0000
vt 24.2842 1.6371 0.0000
vt 23.5254 1.6371 0.0000
vt 23.4843 1.6890 0.0000
vt 23.4843 1.6261 0.0000
vt 23.5254 1.6261 0.0000
vt 22.7116 -29.5139 0.0000
vt 22.7116 -29.5713 0.0000
vt 23.4392 -29.5713 0.0000
vt 23.4392 -29.5139 0.0000
vt 22.6646 1.0146 0.0000
vt 23.4843 1.0146 0.0000
vt 23.4843 1.3518 0.0000
vt 22.6646 1.3518 0.0000
vt 23.4392 1.3518 0.0000
vt 22.7116 1.3518 0.0000
vt 23.4843 -0.0000 0.0000
vt 24.3254 -0.0000 0.0000
vt 24.3254 1.0146 0.0000
vt 24.0310 2.7379 0.0000
vt 23.7576 2.7379 0.0000
vt 23.7576 2.3607 0.0000
vt 24.0310 2.3607 0.0000
vt 24.3254 1.3518 0.0000
vt 22.9351 2.3537 0.0000
vt 22.6646 1.9523 0.0000
vt 23.4843 1.9523 0.0000
vt 23.2056 2.3537 0.0000
vt 21.8235 1.9523 0.0000
vt 22.3912 2.3499 0.0000
vt 22.1179 2.3499 0.0000
vt 21.0038 1.9523 0.0000
vt 21.5530 2.3816 0.0000
vt 21.2825 2.3816 0.0000
vt 21.0038 1.0146 0.0000
vt 21.8235 1.0146 0.0000
vt 21.8235 1.3518 0.0000
vt 21.0038 1.3518 0.0000
vt 21.7764 1.3518 0.0000
vt 21.0489 1.3518 0.0000
vt 54.9238 -29.5713 0.0000
vt 54.9238 -29.5139 0.0000
vt 54.1963 -29.5139 0.0000
vt 54.1963 -29.5713 0.0000
vt 22.6646 1.4174 0.0000
vt 21.8235 1.4174 0.0000
vt 22.6234 1.4174 0.0000
vt 21.8646 1.4174 0.0000
vt 21.7764 -28.4560 0.0000
vt 21.7764 -28.3986 0.0000
vt 21.0489 -28.3986 0.0000
vt 21.0489 -28.4560 0.0000
vt -10.4358 -28.3986 0.0000
vt -10.4358 -28.4560 0.0000
vt -9.7083 -28.4560 0.0000
vt -9.7083 -28.3986 0.0000
vt 22.6646 1.6890 0.0000
vt 21.8235 1.6890 0.0000
vt 21.8235 1.6234 0.0000
vt 22.6646 1.6234 0.0000
vt 21.8646 1.6234 0.0000
vt 22.6234 1.6234 0.0000
vt 23.5254 1.4147 0.0000
vt 23.4843 1.4147 0.0000
vt 23.5254 1.4038 0.0000
vt 24.2842 1.4038 0.0000
vt 24.3254 1.4147 0.0000
vt 24.2842 1.4147 0.0000
vt 59.9876 -0.0000 0.0000
vt 60.8073 -0.0000 0.0000
vt 60.8073 1.0146 0.0000
vt 59.9876 1.0146 0.0000
vt 22.6646 0.0000 0.0000
vt 21.8235 0.0000 0.0000
vt 24.3254 1.9523 0.0000
vt 21.7764 1.6890 0.0000
vt 21.0489 1.6890 0.0000
vt 21.0038 1.6890 0.0000
vt 23.4392 1.6890 0.0000
vt 22.7116 1.6890 0.0000
vt 31.9437 5.0000 0.0000
vt 33.0000 5.0000 0.0000
vt 33.0000 5.9908 0.0000
vt 31.9323 5.0000 0.0000
vt 31.9323 5.9908 0.0000
vt 31.9437 5.9908 0.0000
vt 35.1580 5.0000 0.0000
vt 35.1694 5.0000 0.0000
vt 35.1694 5.9908 0.0000
vt 34.1017 5.0000 0.0000
vt 34.1017 5.9908 0.0000
vt 35.1580 5.9908 0.0000
vt 30.8306 5.9908 0.0000
vt 30.8306 5.0000 0.0000
# 96 texture coords

g Group_001
usemtl wire_087224198
s off
f 82/198/38 83/199/38 84/200/38 85/201/38 
f 86/202/38 85/201/38 84/200/38 87/203/38 
f 86/202/38 87/203/38 88/204/38 89/205/38 
f 90/206/39 91/207/39 92/208/39 93/209/39 
f 94/210/40 95/211/40 96/212/40 97/213/40 
f 97/213/40 96/212/40 92/214/40 91/215/40 
f 95/211/41 98/216/41 99/217/41 100/218/41 
f 101/219/42 102/220/43 103/221/44 104/222/45 
f 96/212/41 95/211/41 100/218/41 105/223/41 
f 102/224/43 106/225/46 107/226/46 103/227/44 
f 108/228/47 106/225/47 102/229/43 101/230/42 
f 109/231/48 108/228/48 101/232/42 104/233/45 
f 100/234/49 110/235/49 111/236/49 105/237/49 
f 105/237/49 111/236/49 112/238/49 113/239/49 
f 94/210/50 97/213/50 111/236/50 110/235/50 
f 114/240/38 115/241/38 89/242/38 88/243/38 
f 111/236/39 97/213/39 91/244/39 112/245/39 
f 112/245/39 91/244/39 90/246/39 116/247/39 
f 117/248/38 118/249/38 83/250/38 82/251/38 
f 112/252/39 116/253/39 119/254/39 113/255/39 
f 120/256/38 121/257/38 118/258/38 114/259/38 
f 114/259/38 118/258/38 117/260/38 115/261/38 
f 93/262/39 92/263/39 96/212/39 122/264/39 
f 123/265/39 122/264/39 96/212/39 105/223/39 
f 123/265/39 105/223/39 113/266/39 119/267/39 
f 99/268/49 124/269/49 110/270/49 100/271/49 
f 125/272/50 94/210/50 110/235/50 124/273/50 
f 94/210/40 125/272/40 98/216/40 95/211/40 
f 107/226/41 87/203/41 84/200/41 109/274/41 
f 118/275/49 121/257/49 108/228/49 83/276/49 
f 84/277/49 83/276/49 108/228/49 109/231/49 
f 120/256/50 106/225/50 108/228/50 121/257/50 
f 104/222/45 103/221/44 107/226/51 109/274/51 
f 88/278/40 87/203/40 107/226/40 114/279/40 
f 120/256/40 114/279/40 107/226/40 106/225/40 
f 119/280/49 116/281/49 117/282/49 123/283/49 
f 85/284/49 123/283/49 117/282/49 82/285/49 
f 93/286/40 122/287/40 86/288/40 90/289/40 
f 115/290/40 90/289/40 86/288/40 89/291/40 
f 86/292/41 122/293/41 123/283/41 85/284/41 
f 90/289/50 115/290/50 117/282/50 116/281/50 
# 41 polygons

